<?xml version="1.0" encoding="UTF-8"?>
<svg id="Layer_1" xmlns="http://www.w3.org/2000/svg" version="1.1" viewBox="0 0 1000 1000">
  <!-- Generator: Adobe Illustrator 30.3.0, SVG Export Plug-In . SVG Version: 2.1.3 Build 182)  -->
  <defs>
    <style>
      .st0 {
        fill: #195794;
      }
    </style>
  </defs>
  <g>
    <path class="st0" d="M355.8,330.84v35.87c1.69-.56,3.47-1.1,5.34-1.6v-36.33c-1.83.65-3.59,1.33-5.34,2.06ZM355.8,448.25v35.88c1.69-.56,3.47-1.1,5.34-1.6v-36.33c-1.83.65-3.59,1.33-5.34,2.04ZM919.01,77.48H358.47c-1.47,0-2.66,1.2-2.66,2.68v227.85c1.69-.56,3.47-1.12,5.34-1.61V82.82h555.2v834.35H361.14v-353.55c-1.83.65-3.59,1.33-5.34,2.04v354.18c0,1.48,1.2,2.68,2.66,2.68h560.54c1.48,0,2.68-1.2,2.68-2.68V80.16c0-1.48-1.2-2.68-2.68-2.68ZM361.14,504.92c-1.83.63-3.59,1.33-5.34,2.04v35.88c1.69-.56,3.47-1.1,5.34-1.6v-36.33ZM355.8,389.54v35.88c1.69-.56,3.47-1.1,5.34-1.6v-36.33c-1.83.65-3.59,1.33-5.34,2.04Z"/>
    <path class="st0" d="M324.09,342.45c-1.72.39-3.52.75-5.4,1.06,2.55,5.4,3.99,11.44,3.99,17.8,0,6.96-1.72,13.55-4.75,19.32,2.37-.48,4.57-1.05,6.67-1.67,2.2-5.46,3.43-11.41,3.43-17.65,0-6.71-1.41-13.1-3.94-18.86ZM315.05,461.49c-2.2.31-4.53.56-6.98.75,8.93,7.62,14.6,18.98,14.6,31.65,0,1.04-.04,2.06-.11,3.07,1.9-.5,3.7-1.06,5.43-1.65h0c.01-.48.03-.94.03-1.41,0-12.56-4.95-23.97-12.97-32.4ZM996.18,54.49c1.48,0,2.68-1.18,2.68-2.66V2.68c0-1.48-1.2-2.68-2.68-2.68h-50.49c-1.48,0-2.68,1.2-2.68,2.68,0,22.91-18.58,41.56-41.42,41.56s-41.41-18.65-41.41-41.56c0-1.48-1.2-2.68-2.68-2.68h-42.7c-1.48,0-2.68,1.2-2.68,2.68,0,22.91-18.58,41.56-41.41,41.56s-41.42-18.65-41.42-41.56c0-1.48-1.18-2.68-2.66-2.68h-42.7c-1.48,0-2.68,1.2-2.68,2.68,0,22.91-18.58,41.56-41.41,41.56s-41.42-18.65-41.42-41.56c0-1.48-1.2-2.68-2.68-2.68h-42.79c-1.48,0-2.68,1.2-2.68,2.68,0,22.91-18.58,41.56-41.42,41.56s-41.41-18.65-41.41-41.56c0-1.48-1.2-2.68-2.68-2.68h-42.7c-1.48,0-2.68,1.2-2.68,2.68,0,22.91-18.58,41.56-41.41,41.56s-41.42-18.65-41.42-41.56c0-1.48-1.18-2.68-2.66-2.68h-52.64c-1.48,0-2.68,1.2-2.68,2.68v49.15c0,1.48,1.2,2.66,2.68,2.66,22.83,0,41.41,18.65,41.41,41.56s-18.58,41.56-41.41,41.56c-1.48,0-2.68,1.2-2.68,2.68v44.11c0,1.48,1.2,2.68,2.68,2.68,22.83,0,41.41,18.65,41.41,41.56s-18.58,41.56-41.41,41.56c-1.48,0-2.68,1.2-2.68,2.68v44.22c0,1.48,1.2,2.68,2.68,2.68,6.4,0,12.45,1.47,17.87,4.07,3.44-.07,6.57-.26,9.48-.54-7.02-5.1-15.49-8.28-24.67-8.81v-39.03c24.55-1.4,44.09-21.86,44.09-46.83s-19.54-45.43-44.09-46.83v-38.92c24.55-1.4,44.09-21.86,44.09-46.83s-19.54-45.43-44.09-46.83V5.34h47.35c1.4,24.63,21.79,44.23,46.69,44.23s45.3-19.6,46.68-44.23h37.51c1.38,24.63,21.79,44.23,46.68,44.23s45.31-19.6,46.69-44.23h37.61c1.38,24.63,21.79,44.23,46.69,44.23s45.3-19.6,46.68-44.23h37.5c1.4,24.63,21.81,44.23,46.69,44.23s45.3-19.6,46.69-44.23h37.5c1.38,24.63,21.79,44.23,46.68,44.23s45.31-19.6,46.69-44.23h45.23v43.88c-24.55,1.4-44.1,21.87-44.1,46.83s19.55,45.43,44.1,46.83v38.92c-24.55,1.4-44.1,21.87-44.1,46.83s19.55,45.43,44.1,46.83v39.03c-24.55,1.4-44.1,21.86-44.1,46.83s19.55,45.43,44.1,46.83v38.92c-24.55,1.4-44.1,21.86-44.1,46.83s19.55,45.43,44.1,46.83v38.92c-24.55,1.4-44.1,21.86-44.1,46.83s19.55,45.43,44.1,46.83v39.02c-24.55,1.4-44.1,21.87-44.1,46.83s19.55,45.43,44.1,46.83v38.92c-24.55,1.4-44.1,21.87-44.1,46.83s19.55,45.43,44.1,46.83v56.09h-45.23c-1.38-24.62-21.79-44.22-46.69-44.22s-45.3,19.6-46.68,44.22h-37.5c-1.4-24.62-21.81-44.22-46.69-44.22s-45.3,19.6-46.69,44.22h-37.5c-1.38-24.62-21.79-44.22-46.68-44.22s-45.31,19.6-46.69,44.22h-37.61c-1.38-24.62-21.79-44.22-46.69-44.22s-45.3,19.6-46.68,44.22h-37.51c-1.38-24.62-21.79-44.22-46.68-44.22s-45.3,19.6-46.69,44.22h-47.35v-56.09c24.55-1.4,44.09-21.86,44.09-46.83s-19.54-45.43-44.09-46.83v-38.92c24.55-1.4,44.09-21.86,44.09-46.83s-19.54-45.43-44.09-46.83v-39.02c24.55-1.4,44.09-21.87,44.09-46.83s-18.72-44.57-42.55-46.71c-.03,0-.04,0-.07-.01-.48-.04-.97-.08-1.47-.11-1.86-.15-3.63-.32-5.35-.54v3.13c0,1.48,1.2,2.68,2.68,2.68,22.83,0,41.41,18.63,41.41,41.56s-18.58,41.56-41.41,41.56c-1.48,0-2.68,1.18-2.68,2.66v44.23c0,1.48,1.2,2.66,2.68,2.66,22.83,0,41.41,18.65,41.41,41.56s-18.58,41.56-41.41,41.56c-1.48,0-2.68,1.2-2.68,2.68v44.13c0,1.48,1.2,2.66,2.68,2.66,22.83,0,41.41,18.65,41.41,41.56s-18.58,41.56-41.41,41.56c-1.48,0-2.68,1.2-2.68,2.68v61.36c0,1.48,1.2,2.68,2.68,2.68h52.64c1.48,0,2.66-1.2,2.66-2.68,0-22.91,18.58-41.56,41.42-41.56s41.41,18.65,41.41,41.56c0,1.48,1.2,2.68,2.68,2.68h42.7c1.48,0,2.68-1.2,2.68-2.68,0-22.91,18.58-41.56,41.41-41.56s41.42,18.65,41.42,41.56c0,1.48,1.2,2.68,2.68,2.68h42.79c1.48,0,2.68-1.2,2.68-2.68,0-22.91,18.58-41.56,41.42-41.56s41.41,18.65,41.41,41.56c0,1.48,1.2,2.68,2.68,2.68h42.7c1.48,0,2.66-1.2,2.66-2.68,0-22.91,18.59-41.56,41.42-41.56s41.41,18.65,41.41,41.56c0,1.48,1.2,2.68,2.68,2.68h42.7c1.48,0,2.68-1.2,2.68-2.68,0-22.91,18.58-41.56,41.41-41.56s41.42,18.65,41.42,41.56c0,1.48,1.2,2.68,2.68,2.68h50.49c1.48,0,2.68-1.2,2.68-2.68v-61.36c0-1.48-1.2-2.68-2.68-2.68-22.83,0-41.41-18.63-41.41-41.56s18.58-41.56,41.41-41.56c1.48,0,2.68-1.18,2.68-2.66v-44.13c0-1.48-1.2-2.68-2.68-2.68-22.83,0-41.41-18.63-41.41-41.56s18.58-41.56,41.41-41.56c1.48,0,2.68-1.18,2.68-2.66v-44.23c0-1.48-1.2-2.66-2.68-2.66-22.83,0-41.41-18.65-41.41-41.56s18.58-41.56,41.41-41.56c1.48,0,2.68-1.2,2.68-2.68v-44.13c0-1.48-1.2-2.66-2.68-2.66-22.83,0-41.41-18.65-41.41-41.56s18.58-41.56,41.41-41.56c1.48,0,2.68-1.2,2.68-2.68v-44.11c0-1.48-1.2-2.68-2.68-2.68-22.83,0-41.41-18.65-41.41-41.56s18.58-41.56,41.41-41.56c1.48,0,2.68-1.2,2.68-2.68v-44.22c0-1.48-1.2-2.68-2.68-2.68-22.83,0-41.41-18.65-41.41-41.56s18.58-41.56,41.41-41.56c1.48,0,2.68-1.2,2.68-2.68v-44.11c0-1.48-1.2-2.68-2.68-2.68-22.83,0-41.41-18.63-41.41-41.56s18.58-41.56,41.41-41.56ZM283.94,540.72c15.34-.87,28.7-9.2,36.6-21.39-2.35.44-4.83.82-7.46,1.13-7.6,9.16-19.04,14.99-31.81,14.99-1.48,0-2.68,1.18-2.68,2.66v19.39c1.69.27,3.47.5,5.35.66v-17.44ZM296.15,403.99c-5.93,0-11.23-.31-16.03-.85h-.01c-.9.42-1.52,1.34-1.52,2.41v34.53c1.69.27,3.47.5,5.35.66v-32.59c5.98-.34,11.67-1.82,16.85-4.22-1.51.04-3.05.07-4.64.07Z"/>
  </g>
  <g>
    <path class="st0" d="M900.15,534.39c-.33,0-.67-.06-.99-.19l-429.99-170.77c-.92-.37-1.57-1.22-1.67-2.21-.1-.99.35-1.95,1.18-2.5l87.88-58.22c.91-.59,2.07-.59,2.96,0l342.11,228.98c1.14.76,1.52,2.26.88,3.47-.48.9-1.4,1.43-2.37,1.43ZM475.9,360.35l401.87,159.6-319.74-214-82.13,54.41Z"/>
    <path class="st0" d="M900.15,534.39H377.3c-.9,0-1.74-.45-2.23-1.21-.49-.75-.58-1.7-.22-2.53l53.89-124.19c.53-1.21,1.86-1.85,3.14-1.52l468.95,124.19c1.3.34,2.14,1.6,1.97,2.93-.17,1.33-1.31,2.33-2.65,2.33ZM381.38,529.04h498.23l-446.88-118.35-51.36,118.35Z"/>
    <path class="st0" d="M470.16,420.51c-1.48,0-2.67-1.19-2.67-2.67v-56.89c0-1.48,1.19-2.67,2.67-2.67s2.67,1.19,2.67,2.67v56.89c0,1.48-1.19,2.67-2.67,2.67Z"/>
    <path class="st0" d="M491.16,572.09c-1.07,0-2.04-.63-2.46-1.63l-16.03-37.7c-.58-1.36.06-2.93,1.42-3.51,1.35-.57,2.93.06,3.51,1.42l15.26,35.91,407.05-37.53c1.45-.08,2.77.95,2.91,2.42.13,1.47-.95,2.77-2.42,2.91l-408.99,37.7c-.08,0-.16,0-.24,0Z"/>
  </g>
  <g>
    <path class="st0" d="M491.16,337.25c-24.94,0-37.59-5.56-49.83-10.93-12.27-5.39-23.86-10.49-47.68-10.49s-35.41,5.09-47.68,10.49c-12.24,5.37-24.89,10.93-49.83,10.93s-37.56-5.56-49.79-10.93c-12.26-5.39-23.85-10.49-47.65-10.49s-35.39,5.09-47.66,10.49c-12.23,5.37-24.88,10.93-49.81,10.93s-37.57-5.56-49.8-10.93c-12.26-5.39-23.84-10.49-47.64-10.49-1.48,0-2.67-1.19-2.67-2.67s1.19-2.67,2.67-2.67c24.92,0,37.56,5.56,49.79,10.93,12.26,5.39,23.85,10.49,47.65,10.49s35.39-5.09,47.66-10.49c12.23-5.37,24.88-10.93,49.81-10.93s37.57,5.56,49.79,10.93c12.26,5.39,23.84,10.49,47.64,10.49s35.41-5.09,47.68-10.49c12.24-5.37,24.89-10.93,49.83-10.93s37.59,5.56,49.82,10.93c12.27,5.39,23.87,10.49,47.68,10.49,1.48,0,2.67,1.19,2.67,2.67s-1.19,2.67-2.67,2.67Z"/>
    <path class="st0" d="M491.16,395.96c-24.94,0-37.59-5.56-49.83-10.93-12.27-5.39-23.86-10.49-47.68-10.49s-35.41,5.09-47.68,10.49c-12.24,5.37-24.89,10.93-49.83,10.93s-37.56-5.56-49.79-10.93c-12.26-5.39-23.85-10.49-47.65-10.49s-35.39,5.09-47.66,10.49c-12.23,5.37-24.88,10.93-49.81,10.93s-37.57-5.56-49.8-10.93c-12.26-5.39-23.84-10.49-47.64-10.49-1.48,0-2.67-1.19-2.67-2.67s1.19-2.67,2.67-2.67c24.92,0,37.56,5.56,49.79,10.93,12.26,5.39,23.85,10.49,47.65,10.49s35.39-5.09,47.66-10.49c12.23-5.37,24.88-10.93,49.81-10.93s37.57,5.56,49.79,10.93c12.26,5.39,23.84,10.49,47.64,10.49s35.41-5.09,47.68-10.49c12.24-5.37,24.89-10.93,49.83-10.93s37.59,5.56,49.82,10.93c12.27,5.39,23.87,10.49,47.68,10.49,1.48,0,2.67,1.19,2.67,2.67s-1.19,2.67-2.67,2.67Z"/>
    <path class="st0" d="M491.16,454.67c-24.94,0-37.59-5.56-49.83-10.93-12.27-5.39-23.86-10.49-47.68-10.49s-35.41,5.09-47.68,10.49c-12.24,5.37-24.89,10.93-49.83,10.93s-37.56-5.56-49.79-10.93c-12.26-5.39-23.85-10.49-47.65-10.49s-35.39,5.09-47.66,10.49c-12.23,5.37-24.88,10.93-49.81,10.93s-37.57-5.56-49.8-10.93c-12.26-5.39-23.84-10.49-47.64-10.49-1.48,0-2.67-1.19-2.67-2.67s1.19-2.67,2.67-2.67c24.92,0,37.56,5.56,49.79,10.93,12.26,5.39,23.85,10.49,47.65,10.49s35.39-5.09,47.66-10.49c12.23-5.37,24.88-10.93,49.81-10.93s37.57,5.56,49.79,10.93c12.26,5.39,23.84,10.49,47.64,10.49s35.41-5.09,47.68-10.49c12.24-5.37,24.89-10.93,49.83-10.93s37.59,5.56,49.82,10.93c12.27,5.39,23.87,10.49,47.68,10.49,1.48,0,2.67,1.19,2.67,2.67s-1.19,2.67-2.67,2.67Z"/>
    <path class="st0" d="M491.16,513.38c-24.94,0-37.59-5.56-49.83-10.93-12.27-5.39-23.86-10.49-47.68-10.49s-35.41,5.09-47.68,10.49c-12.24,5.37-24.89,10.93-49.83,10.93s-37.56-5.56-49.79-10.93c-12.26-5.39-23.85-10.49-47.65-10.49s-35.39,5.09-47.66,10.49c-12.23,5.37-24.88,10.93-49.81,10.93s-37.57-5.56-49.8-10.93c-12.26-5.39-23.84-10.49-47.64-10.49-1.48,0-2.67-1.19-2.67-2.67s1.19-2.67,2.67-2.67c24.92,0,37.56,5.56,49.79,10.93,12.26,5.39,23.85,10.49,47.65,10.49s35.39-5.09,47.66-10.49c12.23-5.37,24.88-10.93,49.81-10.93s37.57,5.56,49.79,10.93c12.26,5.39,23.84,10.49,47.64,10.49s35.41-5.09,47.68-10.49c12.24-5.37,24.89-10.93,49.83-10.93s37.59,5.56,49.82,10.93c12.27,5.39,23.87,10.49,47.68,10.49,1.48,0,2.67,1.19,2.67,2.67s-1.19,2.67-2.67,2.67Z"/>
    <path class="st0" d="M491.16,572.09c-24.94,0-37.59-5.56-49.83-10.93-12.27-5.39-23.86-10.49-47.68-10.49s-35.41,5.09-47.68,10.49c-12.24,5.37-24.89,10.93-49.83,10.93s-37.56-5.56-49.79-10.93c-12.26-5.39-23.85-10.49-47.65-10.49s-35.39,5.09-47.66,10.49c-12.23,5.37-24.88,10.93-49.81,10.93s-37.57-5.56-49.8-10.93c-12.26-5.39-23.84-10.49-47.64-10.49-1.48,0-2.67-1.19-2.67-2.67s1.19-2.67,2.67-2.67c24.92,0,37.56,5.56,49.79,10.93,12.26,5.39,23.85,10.49,47.65,10.49s35.39-5.09,47.66-10.49c12.23-5.37,24.88-10.93,49.81-10.93s37.57,5.56,49.79,10.93c12.26,5.39,23.84,10.49,47.64,10.49s35.41-5.09,47.68-10.49c12.24-5.37,24.89-10.93,49.83-10.93s37.59,5.56,49.82,10.93c12.27,5.39,23.87,10.49,47.68,10.49,1.48,0,2.67,1.19,2.67,2.67s-1.19,2.67-2.67,2.67Z"/>
  </g>
  <g>
    <path class="st0" d="M402.86,818.75v-41.75h9.04v34.02h20.99v7.73h-30.03Z"/>
    <path class="st0" d="M438.71,818.75v-41.75h9.04v41.75h-9.04Z"/>
    <path class="st0" d="M468.14,818.75l-15.05-41.75h9.77l8.98,26.66c.16.45.34.98.55,1.61.2.63.4,1.25.6,1.85.21.61.37,1.16.49,1.64h.36c.16-.45.34-.96.52-1.55.18-.59.36-1.18.55-1.79.18-.61.36-1.18.52-1.7l8.98-26.72h9.4l-15.11,41.75h-10.55Z"/>
    <path class="st0" d="M499.08,818.75v-41.75h9.04v41.75h-9.04Z"/>
    <path class="st0" d="M517.34,818.75v-41.75h8.31l16.74,22.52c.24.29.55.68.91,1.19.37.51.71,1,1.03,1.49.32.49.55.87.67,1.16h.3v-26.35h8.56v41.75h-8.31l-17.11-23.07c-.4-.57-.83-1.2-1.27-1.89-.45-.69-.77-1.22-.97-1.58h-.3v26.54h-8.56Z"/>
    <path class="st0" d="M582.02,819.47c-6.55,0-11.6-1.75-15.14-5.26-3.54-3.51-5.31-8.96-5.31-16.34,0-4.91.85-8.96,2.55-12.14,1.7-3.19,4.17-5.56,7.4-7.12,3.24-1.56,7.12-2.34,11.65-2.34,2.71,0,5.26.31,7.64.91,2.39.61,4.5,1.54,6.34,2.8,1.84,1.26,3.27,2.83,4.31,4.72,1.03,1.89,1.54,4.13,1.54,6.72h-9.16c0-1.26-.27-2.37-.82-3.34-.55-.97-1.31-1.79-2.28-2.44-.97-.65-2.09-1.13-3.34-1.46-1.26-.32-2.57-.49-3.95-.49-2.1,0-3.94.27-5.52.82-1.58.55-2.88,1.38-3.91,2.5-1.03,1.12-1.81,2.5-2.34,4.17-.53,1.66-.79,3.59-.79,5.78v1.83c0,3.04.44,5.54,1.34,7.48.89,1.95,2.22,3.4,4,4.35,1.78.95,3.99,1.43,6.62,1.43,2.18,0,4.12-.33,5.79-1,1.67-.67,2.99-1.63,3.94-2.89.95-1.26,1.43-2.8,1.43-4.62v-.43h-12.44v-6.94h21.42v22.58h-5.94l-.79-4.51c-1.21,1.18-2.52,2.15-3.91,2.92-1.4.77-2.94,1.35-4.64,1.73-1.7.39-3.6.58-5.7.58Z"/>
    <path class="st0" d="M631.46,818.75v-41.75h23.78c2.18,0,4.16.43,5.92,1.28,1.76.85,3.14,2.05,4.16,3.59s1.52,3.35,1.52,5.42c0,1.66-.3,3.15-.91,4.44-.61,1.3-1.43,2.37-2.46,3.23s-2.2,1.48-3.49,1.89v.25c1.54.32,2.9.94,4.09,1.83s2.14,2.04,2.85,3.44c.71,1.4,1.06,3.06,1.06,4.96,0,2.52-.58,4.63-1.73,6.33-1.15,1.7-2.68,2.98-4.58,3.83-1.9.85-4.02,1.28-6.37,1.28h-23.85ZM640.5,793.85h12.01c1.09,0,2.01-.21,2.76-.64.75-.42,1.32-.99,1.7-1.7.38-.71.58-1.53.58-2.46,0-1.58-.43-2.78-1.3-3.59-.87-.81-2.01-1.22-3.43-1.22h-12.32v9.62ZM640.5,811.32h13.04c1.5,0,2.72-.42,3.67-1.28.95-.86,1.43-2.17,1.43-3.96,0-1.05-.21-1.97-.61-2.74-.4-.77-1.01-1.37-1.82-1.79-.81-.43-1.84-.64-3.09-.64h-12.62v10.41Z"/>
    <path class="st0" d="M701.1,835.88c-4.41,0-8.21-.79-11.41-2.37-3.2-1.58-5.64-3.97-7.34-7.18-1.7-3.21-2.55-7.22-2.55-12.05s.85-8.96,2.55-12.14c1.7-3.19,4.15-5.56,7.34-7.12,3.2-1.56,7-2.34,11.41-2.34s8.32.78,11.49,2.34c3.18,1.56,5.61,3.93,7.31,7.12,1.7,3.19,2.55,7.24,2.55,12.14s-.85,8.84-2.55,12.05c-1.7,3.21-4.14,5.6-7.31,7.18-3.18,1.58-7.01,2.37-11.49,2.37ZM701.1,828.46c1.98,0,3.72-.28,5.22-.85,1.49-.57,2.75-1.42,3.76-2.56,1.01-1.13,1.78-2.52,2.31-4.17.52-1.64.79-3.52.79-5.63v-1.89c0-2.15-.26-4.06-.79-5.72-.53-1.66-1.3-3.05-2.31-4.17-1.01-1.11-2.27-1.96-3.76-2.52-1.5-.57-3.24-.85-5.22-.85s-3.66.28-5.16.85c-1.5.57-2.75,1.41-3.76,2.52-1.01,1.12-1.77,2.51-2.28,4.17-.51,1.66-.76,3.57-.76,5.72v1.89c0,2.11.25,3.99.76,5.63.51,1.64,1.26,3.04,2.28,4.17,1.01,1.14,2.26,1.99,3.76,2.56,1.5.57,3.22.85,5.16.85Z"/>
    <path class="st0" d="M757.39,852.68c-4.41,0-8.21-.79-11.41-2.37-3.2-1.58-5.64-3.97-7.34-7.18-1.7-3.21-2.55-7.22-2.55-12.05s.85-8.96,2.55-12.14c1.7-3.19,4.15-5.56,7.34-7.12,3.2-1.56,7-2.34,11.41-2.34s8.32.78,11.49,2.34c3.18,1.56,5.61,3.93,7.31,7.12,1.7,3.19,2.55,7.24,2.55,12.14s-.85,8.84-2.55,12.05c-1.7,3.21-4.14,5.6-7.31,7.18-3.18,1.58-7.01,2.37-11.49,2.37ZM757.39,845.25c1.98,0,3.72-.28,5.22-.85,1.49-.57,2.75-1.42,3.76-2.56,1.01-1.13,1.78-2.52,2.31-4.17.52-1.64.79-3.52.79-5.63v-1.89c0-2.15-.26-4.06-.79-5.72-.53-1.66-1.3-3.05-2.31-4.17-1.01-1.11-2.27-1.96-3.76-2.52-1.5-.57-3.24-.85-5.22-.85s-3.66.28-5.16.85c-1.5.57-2.75,1.41-3.76,2.52-1.01,1.12-1.77,2.51-2.28,4.17-.51,1.66-.76,3.57-.76,5.72v1.89c0,2.11.25,3.99.76,5.63.51,1.64,1.26,3.04,2.28,4.17,1.01,1.14,2.26,1.99,3.76,2.56,1.5.57,3.22.85,5.16.85Z"/>
    <path class="st0" d="M794,871.67v-41.75h9.04v18.99l17.72-18.99h11.16l-15.89,16.98,16.2,24.77h-10.8l-11.65-18.5-6.73,6.09v12.41h-9.04Z"/>
    <path class="st0" d="M856.82,888.46c-2.43,0-4.73-.24-6.92-.73-2.18-.49-4.12-1.27-5.79-2.34-1.68-1.08-2.99-2.44-3.95-4.08-.95-1.64-1.43-3.64-1.43-6v-.64c0-.22.02-.4.06-.52h8.98c-.04.12-.06.28-.06.49v.55c0,1.3.36,2.39,1.06,3.28.71.9,1.75,1.57,3.12,2.01,1.37.45,2.97.67,4.8.67,1.17,0,2.21-.07,3.12-.21.91-.14,1.72-.34,2.43-.61.71-.27,1.3-.58,1.76-.94.46-.36.81-.79,1.03-1.28.22-.49.33-1.03.33-1.64,0-1.09-.36-1.99-1.06-2.67s-1.68-1.28-2.91-1.77c-1.23-.49-2.62-.93-4.16-1.34-1.54-.4-3.12-.82-4.73-1.25-1.62-.42-3.2-.95-4.73-1.58-1.54-.63-2.91-1.39-4.13-2.28-1.21-.89-2.18-2.03-2.91-3.41-.73-1.38-1.09-3.04-1.09-4.99,0-2.07.43-3.85,1.3-5.35.87-1.5,2.09-2.74,3.67-3.71,1.58-.97,3.4-1.7,5.46-2.16,2.06-.46,4.31-.7,6.73-.7,2.27,0,4.41.23,6.43.7,2.02.47,3.8,1.21,5.34,2.22,1.54,1.01,2.74,2.29,3.61,3.84.87,1.54,1.3,3.37,1.3,5.48v.73h-8.8v-.48c0-1.1-.32-2.03-.97-2.8-.65-.77-1.56-1.38-2.73-1.83-1.17-.44-2.55-.67-4.12-.67-1.7,0-3.14.16-4.34.49-1.2.32-2.11.8-2.73,1.43-.62.63-.94,1.37-.94,2.22,0,.97.36,1.78,1.06,2.4.71.63,1.68,1.18,2.91,1.64,1.24.47,2.62.88,4.16,1.25,1.54.36,3.11.77,4.73,1.22,1.62.45,3.19.97,4.73,1.58,1.54.61,2.91,1.37,4.12,2.28,1.21.91,2.18,2.04,2.91,3.38.73,1.34,1.09,2.94,1.09,4.81,0,3.21-.77,5.79-2.31,7.73-1.54,1.95-3.64,3.37-6.31,4.26-2.67.9-5.72,1.34-9.16,1.34Z"/>
  </g>
</svg>